# xmcd
#
# Track frame offsets:
#	150
#	13780
#	23657
#	38295
#	51693
#	67998
#	78337
#	87695
#	102873
#	112380
#
# Disc length: 1664 seconds
#
# Revision: 1
# Processed by: cddbd v1.5.2PL0 Copyright (c) Steve Scherf et al.
# Submitted via: audiograbber 1.83.01
#
DISCID=7f067e0a
DTITLE=John Maines Jr - Long Hard Road John Maines Jr
DYEAR=1900
DGENRE=
TTITLE0=Lying Come So Easy To Your Lips
TTITLE1=Until I´m Over You
TTITLE2=I Don´t Miss You
TTITLE3=I Saw The Light
TTITLE4=Teardrop On A Rose
TTITLE5=Our Love Is Forever, Forever Is Our Love
TTITLE6=I Thjought I´d Always Love Her
TTITLE7=You Used To Be The One
TTITLE8=Someway
TTITLE9=Every Time I Think Of You
EXTD=
EXTT0=
EXTT1=
EXTT2=
EXTT3=
EXTT4=
EXTT5=
EXTT6=
EXTT7=
EXTT8=
EXTT9=
PLAYORDER=
